<svg width="568" height="568" viewBox="0 0 568 568" fill="none" xmlns="http://www.w3.org/2000/svg">
<rect width="568" height="568" fill="white"/>
<g clip-path="url(#clip0_382_161)">
<path d="M194.533 375.016C181.188 375.016 169.177 372.661 158.501 367.951C147.982 363.241 139.583 356.412 133.303 347.463C127.023 338.357 123.804 327.288 123.647 314.257H156.382C157.167 325.247 161.013 333.49 167.921 338.985C174.829 344.48 183.464 347.227 193.826 347.227C204.031 347.227 212.352 345.265 218.789 341.34C225.383 337.258 228.68 331.763 228.68 324.855C228.68 321.087 227.738 317.947 225.854 315.435C224.127 312.766 221.537 310.489 218.083 308.605C214.629 306.564 210.311 304.759 205.13 303.189L168.157 291.414C160.621 289.059 153.634 286.076 147.197 282.465C140.76 278.854 135.579 274.144 131.654 268.335C127.886 262.526 126.002 254.912 126.002 245.492C126.002 234.502 128.671 225.003 134.009 216.996C139.504 208.832 147.119 202.552 156.853 198.156C166.744 193.603 178.283 191.327 191.471 191.327C210.468 191.327 226.011 196.115 238.1 205.692C250.346 215.112 257.332 228.536 259.059 245.963H225.854C224.284 236.857 220.359 230.027 214.079 225.474C207.956 220.921 200.028 218.645 190.294 218.645C183.857 218.645 178.283 219.587 173.573 221.471C168.863 223.355 165.252 226.024 162.74 229.478C160.228 232.775 158.972 236.7 158.972 241.253C158.972 246.434 160.699 250.83 164.153 254.441C167.764 257.895 173.181 260.799 180.403 263.154L218.083 275.164C227.346 278.147 235.117 281.758 241.397 285.997C247.834 290.236 252.622 295.339 255.762 301.305C259.059 307.114 260.708 314.179 260.708 322.5C260.708 332.862 257.96 342.046 252.465 350.053C247.127 357.903 239.435 364.026 229.387 368.422C219.496 372.818 207.878 375.016 194.533 375.016Z" fill="black"/>
<path d="M302.14 302.797C312.978 302.797 321.764 294.01 321.764 283.172C321.764 272.333 312.978 263.547 302.14 263.547C291.301 263.547 282.515 272.333 282.515 283.172C282.515 294.01 291.301 302.797 302.14 302.797Z" fill="black"/>
<path d="M343.571 369.717V193.093H444.365V202.984H354.875V273.163H438.242V283.054H354.875V359.826H444.365V369.717H343.571Z" fill="black"/>
</g>
<defs>
<clipPath id="clip0_382_161">
<rect width="327.082" height="185.346" fill="white" transform="translate(120.459 191.327)"/>
</clipPath>
</defs>
</svg>
