<svg width="24" height="24" viewBox="0 0 24 24" fill="none" xmlns="http://www.w3.org/2000/svg">
<rect width="24" height="24" fill="#1E1E1E"/>
<g id="Works">
<path d="M-1509 -12558.1C-1509 -12559.2 -1508.1 -12560.1 -1507 -12560.1H4388C4389.1 -12560.1 4390 -12559.2 4390 -12558.1V3134.87C4390 3135.97 4389.1 3136.87 4388 3136.87H-1507C-1508.1 3136.87 -1509 3135.97 -1509 3134.87V-12558.1Z" fill="#444444"/>
<path d="M-1507 -12560.1V-12559.1H4388V-12560.1V-12561.1H-1507V-12560.1ZM4390 -12558.1H4389V3134.87H4390H4391V-12558.1H4390ZM4388 3136.87V3135.87H-1507V3136.87V3137.87H4388V3136.87ZM-1509 3134.87H-1508V-12558.1H-1509H-1510V3134.87H-1509ZM-1507 3136.87V3135.87C-1507.55 3135.87 -1508 3135.42 -1508 3134.87H-1509H-1510C-1510 3136.52 -1508.66 3137.87 -1507 3137.87V3136.87ZM4390 3134.87H4389C4389 3135.42 4388.55 3135.87 4388 3135.87V3136.87V3137.87C4389.66 3137.87 4391 3136.52 4391 3134.87H4390ZM4388 -12560.1V-12559.1C4388.55 -12559.1 4389 -12558.7 4389 -12558.1H4390H4391C4391 -12559.8 4389.66 -12561.1 4388 -12561.1V-12560.1ZM-1507 -12560.1V-12561.1C-1508.66 -12561.1 -1510 -12559.8 -1510 -12558.1H-1509H-1508C-1508 -12558.7 -1507.55 -12559.1 -1507 -12559.1V-12560.1Z" fill="white" fill-opacity="0.1"/>
<g id="Auto123">
<rect width="1728" height="14201.1" transform="translate(-1026 -12073.1)" fill="#E4F0FF"/>
<g id="Hero">
<g id="Frame 1400003463">
<rect width="1600" height="486" transform="translate(-962 -330)"/>
<g id="Frame 1400003469">
<g id="Frame 1400003468">
<rect x="-12" y="-12" width="48" height="48" rx="24" fill="white"/>
<g id="arrow_forward">
<mask id="mask0_0_1" style="mask-type:alpha" maskUnits="userSpaceOnUse" x="0" y="0" width="24" height="24">
<rect id="Bounding box" width="24" height="24" fill="#D9D9D9"/>
</mask>
<g mask="url(#mask0_0_1)">
<path id="arrow_forward_2" d="M16.627 12.75H5.25C5.03717 12.75 4.859 12.6782 4.7155 12.5345C4.57183 12.391 4.5 12.2128 4.5 12C4.5 11.7872 4.57183 11.609 4.7155 11.4655C4.859 11.3218 5.03717 11.25 5.25 11.25H16.627L11.4577 6.08076C11.3091 5.93209 11.2357 5.75809 11.2375 5.55876C11.2395 5.35942 11.318 5.18217 11.473 5.02701C11.6282 4.88217 11.8038 4.80717 12 4.80201C12.1962 4.79684 12.3718 4.87184 12.527 5.02701L18.8673 11.3673C18.9609 11.4609 19.0269 11.5597 19.0652 11.6635C19.1037 11.7673 19.123 11.8795 19.123 12C19.123 12.1205 19.1037 12.2327 19.0652 12.3365C19.0269 12.4403 18.9609 12.5391 18.8673 12.6328L12.527 18.973C12.3885 19.1115 12.217 19.1823 12.0125 19.1855C11.808 19.1887 11.6282 19.1178 11.473 18.973C11.318 18.8178 11.2405 18.6397 11.2405 18.4385C11.2405 18.2372 11.318 18.0589 11.473 17.9038L16.627 12.75Z" fill="black"/>
</g>
</g>
</g>
</g>
</g>
</g>
</g>
</g>
</svg>
