<svg preserveAspectRatio="none" width="100%" height="100%" overflow="visible" style="display: block;" viewBox="0 0 992.985 7.36396" fill="none" xmlns="http://www.w3.org/2000/svg">
<path id="Line 17" d="M0 3.68198C0 5.15474 1.19391 6.34865 2.66667 6.34865C4.13943 6.34865 5.33333 5.15474 5.33333 3.68198C5.33333 2.20922 4.13943 1.01531 2.66667 1.01531C1.19391 1.01531 0 2.20922 0 3.68198ZM992.839 4.03553C993.034 3.84027 993.034 3.52369 992.839 3.32843L989.657 0.146447C989.462 -0.0488155 989.145 -0.0488155 988.95 0.146447C988.755 0.341709 988.755 0.658291 988.95 0.853554L991.778 3.68198L988.95 6.51041C988.755 6.70567 988.755 7.02225 988.95 7.21751C989.145 7.41278 989.462 7.41278 989.657 7.21751L992.839 4.03553ZM2.66667 3.68198V4.18198H992.485V3.68198V3.18198H2.66667V3.68198Z" fill="var(--stroke-0, white)"/>
</svg>
