<svg preserveAspectRatio="none" width="100%" height="100%" overflow="visible" style="display: block;" viewBox="0 0 43.2145 32.4111" fill="none" xmlns="http://www.w3.org/2000/svg">
<g id="Group">
<g id="Group_2">
<path id="Vector" fill-rule="evenodd" clip-rule="evenodd" d="M1.90735e-07 0.00012207H43.2145V32.411H1.90735e-07V0.00012207Z" fill="var(--fill-0, #F7FCFF)"/>
<path id="Vector_2" fill-rule="evenodd" clip-rule="evenodd" d="M0 19.8064V22.5073H43.2145V19.8064H0Z" fill="var(--fill-0, #E31D1C)"/>
<path id="Vector_3" fill-rule="evenodd" clip-rule="evenodd" d="M0 24.7587V27.4596H43.2145V24.7587H0Z" fill="var(--fill-0, #E31D1C)"/>
<path id="Vector_4" fill-rule="evenodd" clip-rule="evenodd" d="M0 9.90376V12.6047H43.2145V9.90376H0Z" fill="var(--fill-0, #E31D1C)"/>
<path id="Vector_5" fill-rule="evenodd" clip-rule="evenodd" d="M0 29.71V32.4109H43.2145V29.71H0Z" fill="var(--fill-0, #E31D1C)"/>
<path id="Vector_6" fill-rule="evenodd" clip-rule="evenodd" d="M0 14.8551V17.556H43.2145V14.8551H0Z" fill="var(--fill-0, #E31D1C)"/>
<path id="Vector_7" fill-rule="evenodd" clip-rule="evenodd" d="M1.90735e-07 0.00012207V2.70103H43.2145V0.00012207H1.90735e-07Z" fill="var(--fill-0, #E31D1C)"/>
<path id="Vector_8" fill-rule="evenodd" clip-rule="evenodd" d="M0 4.9514V7.65231H43.2145V4.9514H0Z" fill="var(--fill-0, #E31D1C)"/>
</g>
<path id="Vector_9" d="M1.90735e-07 6.10352e-05H27.009V17.5559H1.90735e-07V6.10352e-05Z" fill="var(--fill-0, #2E42A5)"/>
<path id="Vector_10" fill-rule="evenodd" clip-rule="evenodd" d="M2.3255 3.96851L1.34523 4.65573L1.67618 3.43274L0.805523 2.65771H1.94272L2.32413 1.65963L2.77135 2.65771H3.74079L2.97908 3.43274L3.27397 4.65573L2.3255 3.96851ZM7.72731 3.96851L6.74704 4.65573L7.07799 3.43274L6.20734 2.65771H7.34452L7.72593 1.65963L8.17316 2.65771H9.1426L8.38089 3.43274L8.67577 4.65573L7.72731 3.96851ZM12.1489 4.65573L13.1291 3.96851L14.0776 4.65573L13.7826 3.43274L14.5444 2.65771H13.5749L13.1277 1.65963L12.7463 2.65771H11.6091L12.4798 3.43274L12.1489 4.65573ZM18.531 3.96851L17.5507 4.65573L17.8817 3.43274L17.0109 2.65771H18.1481L18.5296 1.65963L18.9767 2.65771H19.9462L19.1844 3.43274L19.4794 4.65573L18.531 3.96851ZM1.34523 10.0575L2.3255 9.37031L3.27397 10.0575L2.97908 8.83455L3.74079 8.05951H2.77135L2.32413 7.06143L1.94272 8.05951H0.805523L1.67618 8.83455L1.34523 10.0575ZM7.72731 9.37031L6.74704 10.0575L7.07799 8.83455L6.20734 8.05951H7.34452L7.72593 7.06143L8.17316 8.05951H9.1426L8.38089 8.83455L8.67577 10.0575L7.72731 9.37031ZM12.1489 10.0575L13.1291 9.37031L14.0776 10.0575L13.7826 8.83455L14.5444 8.05951H13.5749L13.1277 7.06143L12.7463 8.05951H11.6091L12.4798 8.83455L12.1489 10.0575ZM18.531 9.37031L17.5507 10.0575L17.8817 8.83455L17.0109 8.05951H18.1481L18.5296 7.06143L18.9767 8.05951H19.9462L19.1844 8.83455L19.4794 10.0575L18.531 9.37031ZM1.34523 15.4594L2.3255 14.7721L3.27397 15.4594L2.97908 14.2364L3.74079 13.4613H2.77135L2.32413 12.4632L1.94272 13.4613H0.805523L1.67618 14.2364L1.34523 15.4594ZM7.72731 14.7721L6.74704 15.4594L7.07799 14.2364L6.20734 13.4613H7.34452L7.72593 12.4632L8.17316 13.4613H9.1426L8.38089 14.2364L8.67577 15.4594L7.72731 14.7721ZM12.1489 15.4594L13.1291 14.7721L14.0776 15.4594L13.7826 14.2364L14.5444 13.4613H13.5749L13.1277 12.4632L12.7463 13.4613H11.6091L12.4798 14.2364L12.1489 15.4594ZM18.531 14.7721L17.5507 15.4594L17.8817 14.2364L17.0109 13.4613H18.1481L18.5296 12.4632L18.9767 13.4613H19.9462L19.1844 14.2364L19.4794 15.4594L18.531 14.7721ZM22.9525 4.65573L23.9328 3.96851L24.8812 4.65573L24.5863 3.43274L25.348 2.65771H24.3786L23.9314 1.65963L23.5499 2.65771H22.4127L23.2835 3.43274L22.9525 4.65573ZM23.9328 9.37031L22.9525 10.0575L23.2835 8.83455L22.4127 8.05951H23.5499L23.9314 7.06143L24.3786 8.05951H25.348L24.5863 8.83455L24.8812 10.0575L23.9328 9.37031ZM22.9525 15.4594L23.9328 14.7721L24.8812 15.4594L24.5863 14.2364L25.348 13.4613H24.3786L23.9314 12.4632L23.5499 13.4613H22.4127L23.2835 14.2364L22.9525 15.4594ZM5.02641 6.66941L4.04614 7.35663L4.37708 6.13365L3.50643 5.35861H4.64362L5.02503 4.36053L5.47226 5.35861H6.44169L5.67998 6.13365L5.97487 7.35663L5.02641 6.66941ZM9.44795 7.35663L10.4282 6.66941L11.3767 7.35663L11.0818 6.13365L11.8435 5.35861H10.8741L10.4268 4.36053L10.0454 5.35861H8.90824L9.77889 6.13365L9.44795 7.35663ZM15.8301 6.66941L14.8498 7.35663L15.1808 6.13365L14.31 5.35861H15.4472L15.8287 4.36053L16.2758 5.35861H17.2453L16.4835 6.13365L16.7785 7.35663L15.8301 6.66941ZM4.04614 12.7584L5.02641 12.0712L5.97487 12.7584L5.67998 11.5355L6.44169 10.7604H5.47226L5.02503 9.76234L4.64362 10.7604H3.50643L4.37708 11.5355L4.04614 12.7584ZM10.4282 12.0712L9.44795 12.7584L9.77889 11.5355L8.90824 10.7604H10.0454L10.4268 9.76234L10.8741 10.7604H11.8435L11.0818 11.5355L11.3767 12.7584L10.4282 12.0712ZM14.8498 12.7584L15.8301 12.0712L16.7785 12.7584L16.4835 11.5355L17.2453 10.7604H16.2758L15.8287 9.76234L15.4472 10.7604H14.31L15.1808 11.5355L14.8498 12.7584ZM21.2319 6.66941L20.2516 7.35663L20.5826 6.13365L19.7118 5.35861H20.849L21.2305 4.36053L21.6777 5.35861H22.6471L21.8854 6.13365L22.1803 7.35663L21.2319 6.66941ZM20.2516 12.7584L21.2319 12.0712L22.1803 12.7584L21.8854 11.5355L22.6471 10.7604H21.6777L21.2305 9.76234L20.849 10.7604H19.7118L20.5826 11.5355L20.2516 12.7584Z" fill="var(--fill-0, #F7FCFF)"/>
</g>
</svg>
