<svg preserveAspectRatio="none" overflow="visible" style="display: block;" width="20" height="20" viewBox="0 0 20 20" fill="none" xmlns="http://www.w3.org/2000/svg">
<g id="sent-02">
<path id="Vector" d="M7.91509 12.5L14.1651 6.25" stroke="#3E3E3E" stroke-width="1.5" stroke-linecap="round" stroke-linejoin="round"/>
<path id="Vector_2" d="M6.67195 6.39906L12.7725 3.51567C15.3073 2.31759 16.5747 1.71855 17.3832 2.31951C18.1916 2.92046 17.9606 4.28999 17.4987 7.02905L16.7029 11.7473C16.4009 13.5383 16.2498 14.4337 15.5824 14.8242C14.9149 15.2147 14.0478 14.9148 12.3137 14.315L7.00897 12.4802C3.76597 11.3584 2.14447 10.7976 2.08349 9.69708C2.0225 8.59658 3.57231 7.8641 6.67195 6.39906Z" stroke="#3E3E3E" stroke-width="1.5" stroke-linecap="round" stroke-linejoin="round"/>
<path id="Vector_3" d="M7.91509 12.9167V14.7728C7.91509 16.7508 7.91509 17.7398 8.50691 17.8976C9.09875 18.0553 9.722 17.2324 10.9685 15.5866L11.6651 14.5833" stroke="#3E3E3E" stroke-width="1.5" stroke-linecap="round" stroke-linejoin="round"/>
</g>
</svg>
